<svg xmlns="http://www.w3.org/2000/svg" xmlns:xlink="http://www.w3.org/1999/xlink" width="1080" zoomAndPan="magnify" viewBox="0 0 810 809.999993" height="1080" preserveAspectRatio="xMidYMid meet" version="1.0"><path fill="#000000" d="M 253.308594 237.453125 C 246.363281 230.507812 235.597656 230.507812 228.648438 237.453125 L 72.351562 393.773438 C 65.402344 400.71875 65.402344 411.488281 72.351562 418.4375 L 228.648438 574.753906 C 232.125 578.226562 236.636719 579.964844 240.804688 579.964844 C 244.972656 579.964844 249.835938 578.226562 252.964844 574.753906 C 259.910156 567.804688 259.910156 557.039062 252.964844 550.089844 L 109.515625 405.929688 L 253.308594 261.769531 C 260.257812 255.171875 260.257812 244.054688 253.308594 237.453125 Z M 253.308594 237.453125 " fill-opacity="1" fill-rule="nonzero"/><path fill="#000000" d="M 722.207031 393.773438 L 565.910156 237.453125 C 558.960938 230.507812 548.195312 230.507812 541.246094 237.453125 C 534.300781 244.402344 534.300781 255.171875 541.246094 262.117188 L 685.390625 405.929688 L 541.246094 550.089844 C 534.300781 557.039062 534.300781 567.804688 541.246094 574.753906 C 544.722656 578.226562 549.238281 579.964844 553.40625 579.964844 C 557.574219 579.964844 562.433594 578.226562 565.5625 574.753906 L 721.859375 418.4375 C 729.152344 411.488281 729.152344 400.371094 722.207031 393.773438 Z M 722.207031 393.773438 " fill-opacity="1" fill-rule="nonzero"/><path fill="#000000" d="M 455.109375 233.285156 C 446.078125 230.160156 436.007812 235.023438 433.226562 244.402344 L 329.027344 557.039062 C 325.902344 566.070312 330.765625 576.144531 340.144531 578.921875 C 341.878906 579.617188 343.964844 579.964844 345.699219 579.964844 C 352.996094 579.964844 359.59375 575.449219 362.023438 568.152344 L 466.222656 255.519531 C 469.003906 246.140625 464.140625 236.066406 455.109375 233.285156 Z M 455.109375 233.285156 " fill-opacity="1" fill-rule="nonzero"/></svg>